#!OML:ASF C:\ViconDB\ViconDB\414\Spring2016\041811\Spring2016.ASF
:FULLY-SPECIFIED
:DEGREES
154
root 11.0963 17.8115 18.8633 -22.194 -86.7346 22.892
lowerback 0.972778 -0.820876 -5.16748
upperback 0.216921 -1.15475 -0.333424
thorax -0.227691 -0.578709 2.56552
lowerneck 7.34285 -12.3898 -28.5019
upperneck 13.9958 -24.0135 28.3061
head 10.529 -12.7474 12.3556
rclavicle -2.73329e-016 -7.95139e-015
rhumerus -2.17275 -24.8314 -1.9729
rradius 68.0728
rwrist 17.0784
rhand -55.812 -22.369
rfingers 7.12502
rthumb -28.1566 -50.2747
lclavicle -2.73329e-016 -7.95139e-015
lhumerus -11.0376 9.81467 1.89802
lradius 44.546
lwrist 5.95047
lhand -45.0845 36.6224
lfingers 7.12502
lthumb -17.8649 65.8218
rfemur 166.995 21.5206 -179.731
rtibia 31.6045
rfoot -2.83041 -45.1508
rtoes -30.7174
lfemur -11.8613 -8.33366 -11.6949
ltibia 38.114
lfoot -30.9226 9.7596
ltoes -14.8397
155
root 11.0967 17.8116 18.8595 -20.7178 -86.7054 21.3879
lowerback 1.00186 -0.843515 -5.11092
upperback 0.219511 -1.18586 -0.325914
thorax -0.239758 -0.593951 2.54231
lowerneck 7.35212 -12.3804 -28.5031
upperneck 14.0078 -24.009 28.3131
head 10.5314 -12.7472 12.3621
rclavicle 1.53375e-014 1.63003e-014
rhumerus -2.181 -24.8381 -1.94868
rradius 68.0822
rwrist 17.0769
rhand -55.813 -22.5158
rfingers 7.12502
rthumb -28.1575 -50.4213
lclavicle 1.53375e-014 1.63003e-014
lhumerus -11.0774 9.85124 1.93162
lradius 44.443
lwrist 5.82465
lhand -45.1297 36.3464
lfingers 7.12502
lthumb -17.9084 65.5418
rfemur 166.931 21.4365 -179.682
rtibia 31.6181
rfoot -2.69983 -45.0991
rtoes -30.8091
lfemur -11.8168 -8.41808 -11.5956
ltibia 38.1038
lfoot -30.9695 9.64876
ltoes -14.6717
156
root 11.0965 17.8111 18.856 -19.973 -86.685 20.6387
lowerback 1.00338 -0.85084 -5.06912
upperback 0.214706 -1.1955 -0.338864
thorax -0.245906 -0.598556 2.50575
lowerneck 7.37377 -12.3779 -28.5128
upperneck 14.0079 -24.0233 28.3445
head 10.5397 -12.7575 12.3767
rclavicle 1.16103e-014 1.98785e-015
rhumerus -2.20195 -24.8745 -1.9436
rradius 68.056
rwrist 17.0797
rhand -55.8774 -22.4743
rfingers 7.12502
rthumb -28.219 -50.3696
lclavicle 1.16103e-014 1.98785e-015
lhumerus -11.0438 9.82836 1.96489
lradius 44.3646
lwrist 5.82046
lhand -45.106 36.6932
lfingers 7.12502
lthumb -17.8857 65.8908
rfemur 166.909 21.4493 -179.641
rtibia 31.6251
rfoot -2.53461 -45.1239
rtoes -30.522
lfemur -11.8195 -8.41192 -11.5373
ltibia 38.0978
lfoot -30.9389 9.59544
ltoes -14.6987
157
root 11.0962 17.8107 18.8527 -19.5346 -86.6602 20.1933
lowerback 1.01777 -0.862172 -5.05608
upperback 0.207832 -1.21166 -0.349845
thorax -0.260259 -0.606191 2.48762
lowerneck 7.38169 -12.3741 -28.5247
upperneck 13.9866 -24.0274 28.3853
head 10.5415 -12.7615 12.3957
rclavicle -2.23012e-014 -5.96354e-015
rhumerus -2.18182 -24.9324 -1.96729
rradius 68.0056
rwrist 17.1624
rhand -55.8777 -22.4386
rfingers 7.12502
rthumb -28.2194 -50.3339
lclavicle -2.23012e-014 -5.96354e-015
lhumerus -11.0999 9.74499 1.95729
lradius 44.3708
lwrist 5.89895
lhand -45.0593 36.6608
lfingers 7.12502
lthumb -17.8407 65.8625
rfemur 166.886 21.5439 -179.617
rtibia 31.6236
rfoot -2.63802 -45.1285
rtoes -30.5104
lfemur -11.8184 -8.39781 -11.502
ltibia 38.0865
lfoot -30.9193 9.55821
ltoes -14.7154
158
root 11.0958 17.8103 18.85 -18.981 -86.6518 19.6149
lowerback 1.05116 -0.86805 -5.01899
upperback 0.183465 -1.22208 -0.37276
thorax -0.304497 -0.609962 2.44427
lowerneck 7.40457 -12.3656 -28.4791
upperneck 14.068 -24.0323 28.3316
head 10.551 -12.766 12.3705
rclavicle 5.24295e-015 3.97569e-015
rhumerus -2.22331 -24.899 -1.964
rradius 67.999
rwrist 17.0647
rhand -55.8686 -22.2396
rfingers 7.12502
rthumb -28.2107 -50.1363
lclavicle 5.24295e-015 3.97569e-015
lhumerus -11.1678 9.61105 1.9514
lradius 44.51
lwrist 6.07977
lhand -45.1009 36.8516
lfingers 7.12502
lthumb -17.8807 66.0496
rfemur 166.842 21.4936 -179.597
rtibia 31.629
rfoot -2.5625 -45.12
rtoes -30.5096
lfemur -11.7961 -8.43162 -11.4648
ltibia 38.0895
lfoot -30.9361 9.57299
ltoes -14.6769
159
root 11.0952 17.811 18.8472 -18.7371 -86.6305 19.3445
lowerback 1.05208 -0.871791 -5.03288
upperback 0.215445 -1.22634 -0.371114
thorax -0.271462 -0.613477 2.45343
lowerneck 7.37046 -12.3755 -28.4927
upperneck 14.0613 -24.0429 28.3579
head 10.5661 -12.7685 12.3785
rclavicle 8.74653e-015 1.19271e-014
rhumerus -2.21334 -24.9769 -1.95158
rradius 67.9477
rwrist 17.1162
rhand -55.87 -22.1641
rfingers 7.12502
rthumb -28.212 -50.0607
lclavicle 8.74653e-015 1.19271e-014
lhumerus -11.1907 9.66822 2.00534
lradius 44.4697
lwrist 6.00939
lhand -45.0877 36.8115
lfingers 7.12502
lthumb -17.8681 66.0107
rfemur 166.774 20.8193 -179.658
rtibia 31.6299
rfoot -1.59588 -44.9601
rtoes -30.4152
lfemur -11.7712 -8.43432 -11.444
ltibia 38.0868
lfoot -30.9162 9.5446
ltoes -14.6953
160
root 11.094 17.8083 18.8446 -18.6478 -86.6146 19.2431
lowerback 1.04835 -0.879381 -5.04439
upperback 0.211667 -1.23663 -0.382782
thorax -0.272452 -0.618572 2.44794
lowerneck 7.38634 -12.3675 -28.4739
upperneck 14.0966 -24.038 28.3292
head 10.5657 -12.7676 12.3676
rclavicle 4.03781e-016 1.19271e-014
rhumerus -2.20436 -24.9701 -1.9602
rradius 67.8878
rwrist 17.2082
rhand -55.9235 -22.4002
rfingers 7.12502
rthumb -28.2631 -50.2882
lclavicle 4.03781e-016 1.19271e-014
lhumerus -11.2043 9.63272 2.03548
lradius 44.4019
lwrist 6.06286
lhand -45.0884 36.7202
lfingers 7.12502
lthumb -17.8688 65.9193
rfemur 166.777 21.7309 -179.583
rtibia 31.6319
rfoot -2.74826 -45.1502
rtoes -30.3474
lfemur -11.762 -8.41966 -11.4313
ltibia 38.0863
lfoot -30.8885 9.52907
ltoes -14.7604
161
root 11.0924 17.8084 18.8403 -16.4905 -86.6345 17.0285
lowerback 1.07081 -0.881501 -4.92813
upperback 0.235884 -1.23839 -0.366452
thorax -0.262105 -0.620052 2.39983
lowerneck 7.37503 -12.3777 -28.4436
upperneck 14.122 -24.0515 28.3094
head 10.5736 -12.7719 12.3507
rclavicle 1.02809e-014 -3.97569e-015
rhumerus -2.24655 -24.9765 -1.94699
rradius 67.8771
rwrist 17.1985
rhand -55.9192 -22.8046
rfingers 7.12502
rthumb -28.2591 -50.6934
lclavicle 1.02809e-014 -3.97569e-015
lhumerus -11.1947 9.68889 2.03635
lradius 44.328
lwrist 5.97007
lhand -44.9955 36.4698
lfingers 7.12502
lthumb -17.7793 65.6771
rfemur 166.713 21.7446 -179.447
rtibia 31.6236
rfoot -2.73454 -45.1417
rtoes -30.2678
lfemur -11.7074 -8.46109 -11.2777
ltibia 38.0891
lfoot -30.9012 9.52991
ltoes -14.7949
162
root 11.0909 17.8102 18.8367 -15.3362 -86.5351 15.8716
lowerback 1.056 -0.915544 -4.91542
upperback 0.237816 -1.28259 -0.364167
thorax -0.248596 -0.642468 2.39515
lowerneck 7.37994 -12.3683 -28.452
upperneck 14.1379 -24.0521 28.3314
head 10.584 -12.7743 12.364
rclavicle 1.47411e-014 2.78299e-015
rhumerus -2.26625 -24.9695 -1.94315
rradius 67.8414
rwrist 17.2309
rhand -55.9564 -22.8546
rfingers 7.12502
rthumb -28.2946 -50.7375
lclavicle 1.47411e-014 2.78299e-015
lhumerus -11.2049 9.69573 2.07997
lradius 44.3199
lwrist 5.97866
lhand -45.0907 36.6426
lfingers 7.12502
lthumb -17.8709 65.8415
rfemur 166.628 21.0504 -179.484
rtibia 31.6232
rfoot -1.61247 -44.9571
rtoes -30.1513
lfemur -11.7326 -8.53347 -11.2152
ltibia 38.0934
lfoot -30.8826 9.48737
ltoes -14.8207
